<svg width="24" height="24" viewBox="0 0 24 24" fill="none" xmlns="http://www.w3.org/2000/svg">
<circle cx="12" cy="13" r="9" stroke="black" stroke-width="2" stroke-linecap="round" stroke-linejoin="round"/>
<path d="M12 8.5V13L13.8 14.8" stroke="black" stroke-width="2" stroke-linecap="round" stroke-linejoin="round"/>
<path d="M0.292893 6.29289C-0.0976311 6.68342 -0.0976311 7.31658 0.292893 7.70711C0.683417 8.09763 1.31658 8.09763 1.70711 7.70711L0.292893 6.29289ZM5.70711 3.70711C6.09763 3.31658 6.09763 2.68342 5.70711 2.29289C5.31658 1.90237 4.68342 1.90237 4.29289 2.29289L5.70711 3.70711ZM1.70711 7.70711L5.70711 3.70711L4.29289 2.29289L0.292893 6.29289L1.70711 7.70711Z" fill="black"/>
<path d="M23.7071 6.29289C24.0976 6.68342 24.0976 7.31658 23.7071 7.70711C23.3166 8.09763 22.6834 8.09763 22.2929 7.70711L23.7071 6.29289ZM18.2929 3.70711C17.9024 3.31658 17.9024 2.68342 18.2929 2.29289C18.6834 1.90237 19.3166 1.90237 19.7071 2.29289L18.2929 3.70711ZM22.2929 7.70711L18.2929 3.70711L19.7071 2.29289L23.7071 6.29289L22.2929 7.70711Z" fill="black"/>
</svg>
