<svg width="24" height="24" viewBox="0 0 24 24" fill="none" xmlns="http://www.w3.org/2000/svg">
<path d="M21 14V15C21.5523 15 22 14.5523 22 14H21ZM3 14H2C2 14.5523 2.44772 15 3 15V14ZM14 12H15C15 11.4477 14.5523 11 14 11V12ZM10 12V11C9.44772 11 9 11.4477 9 12H10ZM14 16V17C14.5523 17 15 16.5523 15 16H14ZM10 16H9C9 16.5523 9.44772 17 10 17V16ZM8 7C8 7.55228 8.44772 8 9 8C9.55228 8 10 7.55228 10 7H8ZM14 7C14 7.55228 14.4477 8 15 8C15.5523 8 16 7.55228 16 7H14ZM7 21H17V19H7V21ZM20 18V14H18V18H20ZM4 14V18H6V14H4ZM22 14V9H20V14H22ZM19 6H5V8H19V6ZM2 9V14H4V9H2ZM3 15H5V13H3V15ZM19 15H21V13H19V15ZM19 13H14V15H19V13ZM15 14V12H13V14H15ZM14 11H10V13H14V11ZM15 16V14H13V16H15ZM9 12V14H11V12H9ZM9 14V16H11V14H9ZM5 15H10V13H5V15ZM5 6C3.34315 6 2 7.34315 2 9H4C4 8.44772 4.44772 8 5 8V6ZM22 9C22 7.34315 20.6569 6 19 6V8C19.5523 8 20 8.44771 20 9H22ZM17 21C18.6569 21 20 19.6569 20 18H18C18 18.5523 17.5523 19 17 19V21ZM7 19C6.44772 19 6 18.5523 6 18H4C4 19.6569 5.34315 21 7 21V19ZM10 7V5H8V7H10ZM10 5H14V3H10V5ZM14 5V7H16V5H14ZM14 5H16C16 3.89543 15.1046 3 14 3V5ZM10 5V3C8.89543 3 8 3.89543 8 5H10ZM10 17H14V15H10V17Z" fill="black"/>
</svg>
