<svg width="24" height="24" viewBox="0 0 24 24" fill="none" xmlns="http://www.w3.org/2000/svg">
<path d="M12 20L12 12M12 12L9 14M12 12L15 14" stroke="black" stroke-width="2" stroke-linecap="round" stroke-linejoin="round"/>
<path d="M4.8 4V3V4ZM19.2 4V5V4ZM21 6H22H21ZM21 18H20H21ZM7.5 21C8.05229 21 8.5 20.5523 8.5 20C8.5 19.4477 8.05229 19 7.5 19V21ZM4.8 20V19V20ZM3 18H4H3ZM3 6H2H3ZM19.2 20V21V20ZM16.5 19C15.9477 19 15.5 19.4477 15.5 20C15.5 20.5523 15.9477 21 16.5 21V19ZM3 7C2.44772 7 2 7.44772 2 8C2 8.55229 2.44772 9 3 9V7ZM21 9C21.5523 9 22 8.55229 22 8C22 7.44772 21.5523 7 21 7V9ZM4.8 5L19.2 5V3L4.8 3V5ZM20 6V18H22V6H20ZM7.5 19H4.8V21H7.5V19ZM4 18L4 6H2L2 18H4ZM19.2 19H16.5V21H19.2V19ZM4.8 19C4.45467 19 4 18.654 4 18H2C2 19.5551 3.1571 21 4.8 21V19ZM20 18C20 18.654 19.5453 19 19.2 19V21C20.8429 21 22 19.5551 22 18H20ZM19.2 5C19.5453 5 20 5.346 20 6H22C22 4.44486 20.8429 3 19.2 3V5ZM4.8 3C3.1571 3 2 4.44486 2 6H4C4 5.346 4.45467 5 4.8 5V3ZM3 9H21V7H3V9Z" fill="black"/>
</svg>
