<svg width="24" height="24" viewBox="0 0 24 24" fill="none" xmlns="http://www.w3.org/2000/svg">
<path d="M17 9C16.4477 9 16 9.44772 16 10C16 10.5523 16.4477 11 17 11V9ZM20 11C20.5523 11 21 10.5523 21 10C21 9.44772 20.5523 9 20 9V11ZM17 13C16.4477 13 16 13.4477 16 14C16 14.5523 16.4477 15 17 15V13ZM20 15C20.5523 15 21 14.5523 21 14C21 13.4477 20.5523 13 20 13V15ZM17 17C16.4477 17 16 17.4477 16 18C16 18.5523 16.4477 19 17 19V17ZM20 19C20.5523 19 21 18.5523 21 18C21 17.4477 20.5523 17 20 17V19ZM7 11C7.55228 11 8 10.5523 8 10C8 9.44772 7.55228 9 7 9V11ZM4 9C3.44772 9 3 9.44772 3 10C3 10.5523 3.44772 11 4 11V9ZM7 15C7.55228 15 8 14.5523 8 14C8 13.4477 7.55228 13 7 13V15ZM4 13C3.44772 13 3 13.4477 3 14C3 14.5523 3.44772 15 4 15V13ZM7 19C7.55228 19 8 18.5523 8 18C8 17.4477 7.55228 17 7 17V19ZM4 17C3.44772 17 3 17.4477 3 18C3 18.5523 3.44772 19 4 19V17ZM14.2929 3.29289C13.9024 3.68342 13.9024 4.31658 14.2929 4.70711C14.6834 5.09763 15.3166 5.09763 15.7071 4.70711L14.2929 3.29289ZM17.7071 2.70711C18.0976 2.31658 18.0976 1.68342 17.7071 1.29289C17.3166 0.902369 16.6834 0.902369 16.2929 1.29289L17.7071 2.70711ZM8.29289 4.70711C8.68342 5.09763 9.31658 5.09763 9.70711 4.70711C10.0976 4.31658 10.0976 3.68342 9.70711 3.29289L8.29289 4.70711ZM7.70711 1.29289C7.31658 0.902369 6.68342 0.902369 6.29289 1.29289C5.90237 1.68342 5.90237 2.31658 6.29289 2.70711L7.70711 1.29289ZM11 11C10.4477 11 10 11.4477 10 12C10 12.5523 10.4477 13 11 13V11ZM13 13C13.5523 13 14 12.5523 14 12C14 11.4477 13.5523 11 13 11V13ZM11 15C10.4477 15 10 15.4477 10 16C10 16.5523 10.4477 17 11 17V15ZM13 17C13.5523 17 14 16.5523 14 16C14 15.4477 13.5523 15 13 15V17ZM17 11H20V9H17V11ZM17 15H20V13H17V15ZM17 19H20V17H17V19ZM7 9H4V11H7V9ZM7 13H4V15H7V13ZM7 17H4V19H7V17ZM16 9V17H18V9H16ZM8 17V9H6V17H8ZM12 21C9.79086 21 8 19.2091 8 17H6C6 20.3137 8.68629 23 12 23V21ZM16 17C16 19.2091 14.2091 21 12 21V23C15.3137 23 18 20.3137 18 17H16ZM12 5C14.2091 5 16 6.79086 16 9H18C18 5.68629 15.3137 3 12 3V5ZM12 3C8.68629 3 6 5.68629 6 9H8C8 6.79086 9.79086 5 12 5V3ZM15.7071 4.70711L17.7071 2.70711L16.2929 1.29289L14.2929 3.29289L15.7071 4.70711ZM9.70711 3.29289L7.70711 1.29289L6.29289 2.70711L8.29289 4.70711L9.70711 3.29289ZM11 13H13V11H11V13ZM11 17H13V15H11V17Z" fill="black"/>
</svg>
