<svg width="24" height="24" viewBox="0 0 24 24" fill="none" xmlns="http://www.w3.org/2000/svg">
<path d="M7 6C7 6.55228 7.44772 7 8 7C8.55228 7 9 6.55228 9 6H7ZM9 3C9 2.44772 8.55228 2 8 2C7.44772 2 7 2.44772 7 3H9ZM15 6C15 6.55228 15.4477 7 16 7C16.5523 7 17 6.55228 17 6H15ZM17 3C17 2.44772 16.5523 2 16 2C15.4477 2 15 2.44772 15 3H17ZM6 22H18V20H6V22ZM18 4H6V6H18V4ZM3 7V9H5V7H3ZM3 9V19H5V9H3ZM21 19V9H19V19H21ZM21 9V7H19V9H21ZM9 6V3H7V6H9ZM17 6V3H15V6H17ZM4 10H12V8H4V10ZM12 10H20V8H12V10ZM6 4C4.34315 4 3 5.34315 3 7H5C5 6.44772 5.44772 6 6 6V4ZM18 6C18.5523 6 19 6.44772 19 7H21C21 5.34315 19.6569 4 18 4V6ZM18 22C19.6569 22 21 20.6569 21 19H19C19 19.5523 18.5523 20 18 20V22ZM6 20C5.44772 20 5 19.5523 5 19H3C3 20.6569 4.34315 22 6 22V20Z" fill="black"/>
</svg>
