<svg width="24" height="24" viewBox="0 0 24 24" fill="none" xmlns="http://www.w3.org/2000/svg">
<path d="M19.7071 8.70711C20.0976 8.31658 20.0976 7.68342 19.7071 7.29289C19.3166 6.90237 18.6834 6.90237 18.2929 7.29289L19.7071 8.70711ZM12 15L11.2929 15.7071C11.6834 16.0976 12.3166 16.0976 12.7071 15.7071L12 15ZM5.70711 7.29289C5.31658 6.90237 4.68342 6.90237 4.29289 7.29289C3.90237 7.68342 3.90237 8.31658 4.29289 8.70711L5.70711 7.29289ZM18.2929 7.29289L11.2929 14.2929L12.7071 15.7071L19.7071 8.70711L18.2929 7.29289ZM12.7071 14.2929L5.70711 7.29289L4.29289 8.70711L11.2929 15.7071L12.7071 14.2929Z" fill="black"/>
</svg>
