<svg width="24" height="24" viewBox="0 0 24 24" fill="none" xmlns="http://www.w3.org/2000/svg">
<path d="M8.70711 4.29289C8.31658 3.90237 7.68342 3.90237 7.29289 4.29289C6.90237 4.68342 6.90237 5.31658 7.29289 5.70711L8.70711 4.29289ZM15 12L15.7071 12.7071C16.0976 12.3166 16.0976 11.6834 15.7071 11.2929L15 12ZM7.29289 18.2929C6.90237 18.6834 6.90237 19.3166 7.29289 19.7071C7.68342 20.0976 8.31658 20.0976 8.70711 19.7071L7.29289 18.2929ZM7.29289 5.70711L14.2929 12.7071L15.7071 11.2929L8.70711 4.29289L7.29289 5.70711ZM14.2929 11.2929L7.29289 18.2929L8.70711 19.7071L15.7071 12.7071L14.2929 11.2929Z" fill="black"/>
</svg>
