<svg width="24" height="24" viewBox="0 0 24 24" fill="none" xmlns="http://www.w3.org/2000/svg">
<path d="M14.2929 19.2071C14.6834 19.5976 15.3166 19.5976 15.7071 19.2071C16.0976 18.8166 16.0976 18.1834 15.7071 17.7929L14.2929 19.2071ZM8 11.5L7.29289 10.7929C6.90237 11.1834 6.90237 11.8166 7.29289 12.2071L8 11.5ZM15.7071 5.20711C16.0976 4.81658 16.0976 4.18342 15.7071 3.79289C15.3166 3.40237 14.6834 3.40237 14.2929 3.79289L15.7071 5.20711ZM15.7071 17.7929L8.70711 10.7929L7.29289 12.2071L14.2929 19.2071L15.7071 17.7929ZM8.70711 12.2071L15.7071 5.20711L14.2929 3.79289L7.29289 10.7929L8.70711 12.2071Z" fill="black"/>
</svg>
