<svg width="24" height="24" viewBox="0 0 24 24" fill="none" xmlns="http://www.w3.org/2000/svg">
<path d="M4 21C4 21.5523 4.44772 22 5 22C5.55228 22 6 21.5523 6 21H4ZM5 3V2C4.44772 2 4 2.44772 4 3H5ZM19 5H20C20 4.44772 19.5523 4 19 4V5ZM19 14V15C19.5523 15 20 14.5523 20 14H19ZM5 12H4C4 12.5523 4.44772 13 5 13V12ZM6 21V3H4V21H6ZM5 4H12V2H5V4ZM14 6H19V4H14V6ZM18 5V14H20V5H18ZM19 13H13V15H19V13ZM11 11H5V13H11V11ZM6 12V3H4V12H6ZM13 13H11C11 14.1046 11.8954 15 13 15V13ZM12 4C12 5.10457 12.8954 6 14 6V4H12ZM13 13C13 11.8954 12.1046 11 11 11V13H13ZM12 4H14C14 2.89543 13.1046 2 12 2V4Z" fill="black"/>
</svg>
