<svg width="24" height="24" viewBox="0 0 24 24" fill="none" xmlns="http://www.w3.org/2000/svg">
<path d="M19 20H5C3.89543 20 3 19.1046 3 18V6C3 4.89543 3.89543 4 5 4H8.15224C8.75211 4 9.3203 4.26925 9.70016 4.73352L10.7999 6.07768C10.9899 6.30982 11.2739 6.44444 11.5739 6.44444H19C20.1046 6.44444 21 7.33988 21 8.44445V18C21 19.1046 20.1046 20 19 20Z" stroke="black" stroke-width="2" stroke-linecap="round" stroke-linejoin="round"/>
<path d="M10 12C9.44772 12 9 12.4477 9 13C9 13.5523 9.44772 14 10 14V12ZM14 14C14.5523 14 15 13.5523 15 13C15 12.4477 14.5523 12 14 12V14ZM10 14H12V12H10V14ZM12 14H14V12H12V14Z" fill="black"/>
</svg>
