<svg width="24" height="24" viewBox="0 0 24 24" fill="none" xmlns="http://www.w3.org/2000/svg">
<path d="M8.20061 18.4005C7.75904 18.0688 7.13217 18.1578 6.80046 18.5994C6.46875 19.041 6.55781 19.6678 6.99939 19.9995L8.20061 18.4005ZM3 13.5C3 14.0523 3.44772 14.5 4 14.5C4.55228 14.5 5 14.0523 5 13.5H3ZM21 12C21 16.4183 17.4183 20 13 20V22C18.5228 22 23 17.5228 23 12H21ZM5 12C5 7.58172 8.58172 4 13 4V2C7.47715 2 3 6.47715 3 12H5ZM13 4C17.4183 4 21 7.58172 21 12H23C23 6.47715 18.5228 2 13 2V4ZM13 20C11.1979 20 9.53777 19.4049 8.20061 18.4005L6.99939 19.9995C8.67071 21.255 10.7496 22 13 22V20ZM3 12V13.5H5V12H3Z" fill="black"/>
<path d="M4 15L3.29289 15.7071C3.48043 15.8946 3.73478 16 4 16C4.26522 16 4.51957 15.8946 4.70711 15.7071L4 15ZM1.70711 11.2929C1.31658 10.9024 0.683418 10.9024 0.292893 11.2929C-0.0976311 11.6834 -0.0976311 12.3166 0.292893 12.7071L1.70711 11.2929ZM7.70711 12.7071C8.09763 12.3166 8.09763 11.6834 7.70711 11.2929C7.31658 10.9024 6.68342 10.9024 6.29289 11.2929L7.70711 12.7071ZM4.70711 14.2929L1.70711 11.2929L0.292893 12.7071L3.29289 15.7071L4.70711 14.2929ZM4.70711 15.7071L7.70711 12.7071L6.29289 11.2929L3.29289 14.2929L4.70711 15.7071Z" fill="black"/>
</svg>
