<svg width="24" height="24" viewBox="0 0 24 24" fill="none" xmlns="http://www.w3.org/2000/svg">
<path d="M17.484 6.37169L16.7678 5.67383L17.484 6.37169ZM6.51601 6.37169L7.23224 5.67383H7.23224L6.51601 6.37169ZM17.484 17.6283L16.7678 18.3262V18.3262L17.484 17.6283ZM6.51601 17.6283L7.23224 18.3262L7.23224 18.3262L6.51601 17.6283ZM7.71429 4H16.2857V2H7.71429V4ZM17 4.8V5.08447H19V4.8H17ZM16.7678 5.67383L11.2838 11.3021L12.7162 12.6979L18.2002 7.06956L16.7678 5.67383ZM12.7162 11.3021L7.23224 5.67383L5.79978 7.06956L11.2838 12.6979L12.7162 11.3021ZM7 5.08447V4.8H5V5.08447H7ZM7.23224 5.67383C7.08914 5.52697 7 5.31542 7 5.08447H5C5 5.82252 5.2829 6.53908 5.79978 7.06956L7.23224 5.67383ZM17 5.08447C17 5.31543 16.9109 5.52697 16.7678 5.67383L18.2002 7.06956C18.7171 6.53908 19 5.82252 19 5.08447H17ZM16.2857 4C16.6348 4 17 4.31163 17 4.8H19C19 3.30014 17.8302 2 16.2857 2V4ZM7.71429 2C6.16981 2 5 3.30014 5 4.8H7C7 4.31163 7.36521 4 7.71429 4V2ZM7.71429 22H16.2857V20H7.71429V22ZM19 19.2V18.9155H17V19.2H19ZM18.2002 16.9304L12.7162 11.3021L11.2838 12.6979L16.7678 18.3262L18.2002 16.9304ZM11.2838 11.3021L5.79978 16.9304L7.23224 18.3262L12.7162 12.6979L11.2838 11.3021ZM5 18.9155V19.2H7V18.9155H5ZM5.79978 16.9304C5.2829 17.4609 5 18.1775 5 18.9155H7C7 18.6846 7.08914 18.473 7.23224 18.3262L5.79978 16.9304ZM19 18.9155C19 18.1775 18.7171 17.4609 18.2002 16.9304L16.7678 18.3262C16.9109 18.473 17 18.6846 17 18.9155H19ZM16.2857 22C17.8302 22 19 20.6999 19 19.2H17C17 19.6884 16.6348 20 16.2857 20V22ZM7.71429 20C7.36521 20 7 19.6884 7 19.2H5C5 20.6999 6.16981 22 7.71429 22V20Z" fill="black"/>
</svg>
