<svg width="24" height="24" viewBox="0 0 24 24" fill="none" xmlns="http://www.w3.org/2000/svg">
<path d="M15.6 6H3V18H15.6L21 12.8571L15.6 6Z" stroke="black" stroke-width="2" stroke-linecap="round" stroke-linejoin="round"/>
<path d="M12 10C12 9.44772 11.5523 9 11 9C10.4477 9 10 9.44772 10 10H12ZM10 14C10 14.5523 10.4477 15 11 15C11.5523 15 12 14.5523 12 14H10ZM9 11C8.44772 11 8 11.4477 8 12C8 12.5523 8.44772 13 9 13V11ZM13 13C13.5523 13 14 12.5523 14 12C14 11.4477 13.5523 11 13 11L13 13ZM10 10V12H12V10H10ZM10 12V14H12V12H10ZM9 13H11V11H9V13ZM11 13H13L13 11L11 11L11 13Z" fill="black"/>
</svg>
