<svg width="24" height="24" viewBox="0 0 24 24" fill="none" xmlns="http://www.w3.org/2000/svg">
<g clip-path="url(#clip0)">
<path d="M3.5 7V8V7ZM1 6C0.447715 6 0 6.44772 0 7C0 7.55228 0.447715 8 1 8V6ZM6 8C6.55228 8 7 7.55228 7 7C7 6.44772 6.55228 6 6 6V8ZM1 8H3.5V6H1V8ZM3.5 8L6 8V6L3.5 6L3.5 8Z" fill="black"/>
<path d="M23 21H7C7 21 9.28482 15 15 15C20.7152 15 23 21 23 21Z" stroke="black" stroke-width="2" stroke-linecap="round" stroke-linejoin="round"/>
<circle cx="15" cy="7" r="4" stroke="black" stroke-width="2" stroke-linecap="round" stroke-linejoin="round"/>
</g>
<defs>
<clipPath id="clip0">
<rect width="24" height="24" fill="white"/>
</clipPath>
</defs>
</svg>
