<svg width="24" height="24" viewBox="0 0 24 24" fill="none" xmlns="http://www.w3.org/2000/svg">
<path d="M12 2C7.58172 2 4 5.48223 4 9.77778C4 15.3333 12 22 12 22C12 22 20 15.3333 20 9.77778C20 5.48223 16.4183 2 12 2Z" stroke="black" stroke-width="2" stroke-linecap="round" stroke-linejoin="round"/>
<path d="M13 8C13 7.44772 12.5523 7 12 7C11.4477 7 11 7.44772 11 8H13ZM11 12C11 12.5523 11.4477 13 12 13C12.5523 13 13 12.5523 13 12H11ZM10 9C9.44772 9 9 9.44772 9 10C9 10.5523 9.44772 11 10 11V9ZM14 11C14.5523 11 15 10.5523 15 10C15 9.44772 14.5523 9 14 9L14 11ZM11 8V10H13V8H11ZM11 10V12H13V10H11ZM10 11H12V9H10V11ZM12 11H14L14 9L12 9L12 11Z" fill="black"/>
</svg>
