<svg width="24" height="24" viewBox="0 0 24 24" fill="none" xmlns="http://www.w3.org/2000/svg">
<path d="M2 9H1C1 9.55228 1.44772 10 2 10V9ZM2 5V4C1.44772 4 1 4.44772 1 5H2ZM2 19H1C1 19.5523 1.44772 20 2 20V19ZM2 15V14C1.44772 14 1 14.4477 1 15H2ZM22 9V10C22.5523 10 23 9.55228 23 9H22ZM22 5H23C23 4.44772 22.5523 4 22 4V5ZM22 19V20C22.5523 20 23 19.5523 23 19H22ZM22 15H23C23 14.4477 22.5523 14 22 14V15ZM6 12C6 11.075 5.76588 10.3148 5.3633 9.71092C4.96489 9.11331 4.44084 8.72739 3.94721 8.48057C3.4575 8.23572 2.97989 8.11827 2.63315 8.06048C2.45741 8.03119 2.30877 8.01616 2.20015 8.0084C2.14568 8.00451 2.10077 8.00241 2.06701 8.00129C2.05011 8.00072 2.03595 8.0004 2.02473 8.00022C2.01912 8.00013 2.01424 8.00008 2.01011 8.00004C2.00805 8.00003 2.00617 8.00002 2.00448 8.00001C2.00364 8.00001 2.00285 8 2.0021 8C2.00172 8 2.0012 8 2.00101 8C2.0005 8 2 8 2 9C2 10 1.99952 10 1.99906 10C1.99892 10 1.99846 10 1.99818 10C1.99761 10 1.99709 10 1.99661 9.99999C1.99565 9.99999 1.99486 9.99998 1.99424 9.99998C1.99299 9.99997 1.99241 9.99996 1.99248 9.99996C1.99261 9.99996 1.9953 10 2.00038 10.0002C2.01056 10.0005 2.03011 10.0013 2.05766 10.0033C2.11311 10.0073 2.19884 10.0157 2.30435 10.0333C2.52011 10.0692 2.7925 10.1393 3.05279 10.2694C3.30916 10.3976 3.53511 10.5742 3.6992 10.8203C3.85912 11.0602 4 11.425 4 12H6ZM3 9V5H1V9H3ZM3 19V15H1V19H3ZM2 15C2 16 2.0005 16 2.00101 16C2.0012 16 2.00172 16 2.0021 16C2.00285 16 2.00364 16 2.00448 16C2.00617 16 2.00805 16 2.01011 16C2.01424 15.9999 2.01912 15.9999 2.02473 15.9998C2.03595 15.9996 2.05011 15.9993 2.06701 15.9987C2.10077 15.9976 2.14568 15.9955 2.20015 15.9916C2.30877 15.9838 2.45741 15.9688 2.63315 15.9395C2.97989 15.8817 3.4575 15.7643 3.94721 15.5194C4.44084 15.2726 4.96489 14.8867 5.3633 14.2891C5.76588 13.6852 6 12.925 6 12H4C4 12.575 3.85912 12.9398 3.6992 13.1797C3.53511 13.4258 3.30916 13.6024 3.05279 13.7306C2.7925 13.8607 2.52011 13.9308 2.30435 13.9667C2.19884 13.9843 2.11311 13.9927 2.05766 13.9967C2.03011 13.9986 2.01056 13.9995 2.00038 13.9998C1.9953 14 1.99261 14 1.99248 14C1.99241 14 1.99299 14 1.99424 14C1.99486 14 1.99565 14 1.99661 14C1.99709 14 1.99761 14 1.99818 14C1.99846 14 1.99892 14 1.99906 14C1.99952 14 2 14 2 15ZM20 12C20 11.425 20.1409 11.0602 20.3008 10.8203C20.4649 10.5742 20.6908 10.3976 20.9472 10.2694C21.2075 10.1393 21.4799 10.0692 21.6956 10.0333C21.8012 10.0157 21.8869 10.0073 21.9423 10.0033C21.9699 10.0013 21.9894 10.0005 21.9996 10.0002C22.0047 10 22.0074 9.99996 22.0075 9.99996C22.0076 9.99996 22.007 9.99997 22.0058 9.99998C22.0051 9.99998 22.0044 9.99999 22.0034 9.99999C22.0029 10 22.0024 10 22.0018 10C22.0015 10 22.0011 10 22.0009 10C22.0005 10 22 10 22 9C22 8 21.9995 8 21.999 8C21.9988 8 21.9983 8 21.9979 8C21.9972 8 21.9964 8.00001 21.9955 8.00001C21.9938 8.00002 21.992 8.00003 21.9899 8.00004C21.9858 8.00008 21.9809 8.00013 21.9753 8.00022C21.964 8.0004 21.9499 8.00072 21.933 8.00129C21.8992 8.00241 21.8543 8.00451 21.7998 8.0084C21.6912 8.01616 21.5426 8.03119 21.3669 8.06048C21.0201 8.11827 20.5425 8.23572 20.0528 8.48057C19.5592 8.72739 19.0351 9.11331 18.6367 9.71092C18.2341 10.3148 18 11.075 18 12H20ZM23 9V5H21V9H23ZM23 19V15H21V19H23ZM22 15C22 14 22.0005 14 22.0009 14C22.0011 14 22.0015 14 22.0018 14C22.0024 14 22.0029 14 22.0034 14C22.0044 14 22.0051 14 22.0058 14C22.007 14 22.0076 14 22.0075 14C22.0074 14 22.0047 14 21.9996 13.9998C21.9894 13.9995 21.9699 13.9986 21.9423 13.9967C21.8869 13.9927 21.8012 13.9843 21.6956 13.9667C21.4799 13.9308 21.2075 13.8607 20.9472 13.7306C20.6908 13.6024 20.4649 13.4258 20.3008 13.1797C20.1409 12.9398 20 12.575 20 12H18C18 12.925 18.2341 13.6852 18.6367 14.2891C19.0351 14.8867 19.5592 15.2726 20.0528 15.5194C20.5425 15.7643 21.0201 15.8817 21.3669 15.9395C21.5426 15.9688 21.6912 15.9838 21.7998 15.9916C21.8543 15.9955 21.8992 15.9976 21.933 15.9987C21.9499 15.9993 21.964 15.9996 21.9753 15.9998C21.9809 15.9999 21.9858 15.9999 21.9899 16C21.992 16 21.9938 16 21.9955 16C21.9964 16 21.9972 16 21.9979 16C21.9983 16 21.9988 16 21.999 16C21.9995 16 22 16 22 15ZM2 6H22V4H2V6ZM22 18H2V20H22V18Z" fill="black"/>
<path d="M12 9L12.5643 11.2233L14.8532 11.0729L12.913 12.2967L13.7634 14.4271L12 12.96L10.2366 14.4271L11.087 12.2967L9.14683 11.0729L11.4357 11.2233L12 9Z" stroke="black" stroke-width="2" stroke-linecap="round" stroke-linejoin="round"/>
</svg>
