<svg width="24" height="24" viewBox="0 0 24 24" fill="none" xmlns="http://www.w3.org/2000/svg">
<path d="M7 8C7 7.44772 6.55228 7 6 7C5.44772 7 5 7.44772 5 8H7ZM19 8C19 7.44772 18.5523 7 18 7C17.4477 7 17 7.44772 17 8H19ZM4 6C3.44772 6 3 6.44772 3 7C3 7.55228 3.44772 8 4 8V6ZM20 8C20.5523 8 21 7.55228 21 7C21 6.44772 20.5523 6 20 6V8ZM5 8V19H7V8H5ZM8 22H16V20H8V22ZM19 19.0032V8H17V19.0032H19ZM16 22C17.6548 22 19 20.6621 19 19.0032H17C17 19.5534 16.5544 20 16 20V22ZM5 19C5 20.6569 6.34315 22 8 22V20C7.44772 20 7 19.5523 7 19H5ZM4 8H8V6H4V8ZM8 8H16V6H8V8ZM16 8H20V6H16V8ZM9 7V5H7V7H9ZM10 4H14V2H10V4ZM15 5V7H17V5H15ZM14 4C14.5523 4 15 4.44772 15 5H17C17 3.34315 15.6569 2 14 2V4ZM9 5C9 4.44772 9.44772 4 10 4V2C8.34315 2 7 3.34315 7 5H9Z" fill="black"/>
<path d="M10 11V17" stroke="black" stroke-width="2" stroke-linecap="round" stroke-linejoin="round"/>
<path d="M14 11V17" stroke="black" stroke-width="2" stroke-linecap="round" stroke-linejoin="round"/>
</svg>
