<svg width="690" height="490" viewBox="0 0 690 490" fill="none" xmlns="http://www.w3.org/2000/svg">
<path d="M398.525 134.535V110.502L385.013 122.519L398.525 134.535Z" stroke="#313131" stroke-width="3" stroke-linecap="round" stroke-linejoin="round"/>
<path d="M377.507 110.502L377.507 134.535" stroke="#313131" stroke-width="3" stroke-linecap="round" stroke-linejoin="round"/>
<path d="M482.024 112.004H476.019V133.033H482.024V112.004Z" stroke="#313131" stroke-width="3" stroke-linecap="round" stroke-linejoin="round"/>
<path d="M470.013 112.004H464.008V133.033H470.013V112.004Z" stroke="#313131" stroke-width="3" stroke-linecap="round" stroke-linejoin="round"/>
<ellipse cx="559.016" cy="122.519" rx="13.5121" ry="13.5185" stroke="#313131" stroke-width="3" stroke-linecap="round" stroke-linejoin="round"/>
<path d="M556.013 118.012V122.519V127.025" stroke="#313131" stroke-width="3" stroke-linecap="round" stroke-linejoin="round"/>
<path d="M562.019 118.012V122.519V127.025" stroke="#313131" stroke-width="3" stroke-linecap="round" stroke-linejoin="round"/>
<path d="M38.5081 116.51C38.5081 115.682 37.8365 115.01 37.0081 115.01C36.1796 115.01 35.5081 115.682 35.5081 116.51H38.5081ZM56.5241 116.51C56.5241 115.682 55.8526 115.01 55.0241 115.01C54.1957 115.01 53.5241 115.682 53.5241 116.51H56.5241ZM34.0054 113.508C33.1769 113.508 32.5054 114.18 32.5054 115.008C32.5054 115.837 33.1769 116.508 34.0054 116.508V113.508ZM58.0268 116.508C58.8552 116.508 59.5268 115.837 59.5268 115.008C59.5268 114.18 58.8552 113.508 58.0268 113.508V116.508ZM35.5081 116.51V133.033H38.5081V116.51H35.5081ZM40.0107 137.537H52.0215V134.537H40.0107V137.537ZM56.5241 133.038V116.51H53.5241V133.038H56.5241ZM52.0215 137.537C54.5058 137.537 56.5241 135.528 56.5241 133.038H53.5241C53.5241 133.866 52.8538 134.537 52.0215 134.537V137.537ZM35.5081 133.033C35.5081 135.52 37.5233 137.537 40.0107 137.537V134.537C39.1815 134.537 38.5081 133.864 38.5081 133.033H35.5081ZM34.0054 116.508H40.0107V113.508H34.0054V116.508ZM40.0107 116.508H52.0215V113.508H40.0107V116.508ZM52.0215 116.508H58.0268V113.508H52.0215V116.508ZM41.5107 115.008V112.004H38.5107V115.008H41.5107ZM43.0134 110.5H49.0188V107.5H43.0134V110.5ZM50.5215 112.004V115.008H53.5215V112.004H50.5215ZM49.0188 110.5C49.848 110.5 50.5215 111.173 50.5215 112.004H53.5215C53.5215 109.517 51.5062 107.5 49.0188 107.5V110.5ZM41.5107 112.004C41.5107 111.173 42.1842 110.5 43.0134 110.5V107.5C40.526 107.5 38.5107 109.517 38.5107 112.004H41.5107Z" fill="#313131"/>
<ellipse cx="131.016" cy="122.519" rx="13.5121" ry="13.5185" stroke="#313131" stroke-width="3" stroke-linecap="round" stroke-linejoin="round"/>
<path d="M131.016 115.008V122.519L134.019 125.523" stroke="#313131" stroke-width="3" stroke-linecap="round" stroke-linejoin="round"/>
<path d="M227.15 113.577C224.674 110.77 221.052 109 217.016 109C209.554 109 203.504 115.052 203.504 122.519C203.504 126.3 205.056 129.719 207.558 132.173M227.15 113.577C229.252 115.96 230.528 119.09 230.528 122.519C230.528 129.985 224.479 136.037 217.016 136.037C213.333 136.037 209.995 134.563 207.558 132.173M227.15 113.577L207.558 132.173" stroke="#313131" stroke-width="3" stroke-linecap="round" stroke-linejoin="round"/>
<path d="M288.504 127.023C288.504 127.023 294.511 119.514 302.019 119.514C309.528 119.514 315.535 127.023 315.535 127.023M315.535 127.023V119.514M315.535 127.023H307.631" stroke="#313131" stroke-width="3" stroke-linecap="round" stroke-linejoin="round"/>
<path d="M657.533 127.023C657.533 127.023 651.526 119.514 644.017 119.514C636.508 119.514 630.5 127.023 630.5 127.023M630.5 127.023V119.514M630.5 127.023H638.405" stroke="#313131" stroke-width="3" stroke-linecap="round" stroke-linejoin="round"/>
<path d="M208.008 212.125V194.912C208.008 192.366 210.979 190.975 212.935 192.606L223.257 201.212C224.697 202.412 224.697 204.625 223.257 205.825L212.935 214.432C210.979 216.062 208.008 214.672 208.008 212.125Z" stroke="#313131" stroke-width="3" stroke-linecap="round" stroke-linejoin="round"/>
<path d="M377.507 215.535V191.502L391.019 203.519L377.507 215.535Z" stroke="#313131" stroke-width="3" stroke-linecap="round" stroke-linejoin="round"/>
<path d="M398.525 191.502L398.525 215.535" stroke="#313131" stroke-width="3" stroke-linecap="round" stroke-linejoin="round"/>
<path d="M556.013 209.527V197.51L563.52 203.519L556.013 209.527Z" stroke="#313131" stroke-width="3" stroke-linecap="round" stroke-linejoin="round"/>
<ellipse cx="559.016" cy="203.519" rx="13.5121" ry="13.5185" stroke="#313131" stroke-width="3" stroke-linecap="round" stroke-linejoin="round"/>
<path d="M293.064 197.51C291.162 199.583 290.005 202.32 290.005 205.321C290.005 211.792 295.383 217.037 302.016 217.037C308.649 217.037 314.027 211.792 314.027 205.321C314.027 202.32 312.87 199.583 310.969 197.51" stroke="#313131" stroke-width="3" stroke-linecap="round" stroke-linejoin="round"/>
<path d="M302.016 202.017V191.502" stroke="#313131" stroke-width="3" stroke-linecap="round" stroke-linejoin="round"/>
<path d="M37.0081 205.021L43.0134 211.029L55.0241 197.51" stroke="#313131" stroke-width="3" stroke-linecap="round" stroke-linejoin="round"/>
<ellipse cx="131.016" cy="203.519" rx="13.5121" ry="13.5185" stroke="#313131" stroke-width="3" stroke-linecap="round" stroke-linejoin="round"/>
<path d="M125.011 204.687L129.014 208.025L137.021 200.514" stroke="#313131" stroke-width="3" stroke-linecap="round" stroke-linejoin="round"/>
<ellipse cx="473.016" cy="203.519" rx="13.5121" ry="13.5185" stroke="#313131" stroke-width="3" stroke-linecap="round" stroke-linejoin="round"/>
<path d="M474.516 197.51C474.516 196.682 473.845 196.01 473.016 196.01C472.188 196.01 471.516 196.682 471.516 197.51H474.516ZM471.516 209.527C471.516 210.355 472.188 211.027 473.016 211.027C473.845 211.027 474.516 210.355 474.516 209.527H471.516ZM467.011 202.019C466.182 202.019 465.511 202.69 465.511 203.519C465.511 204.347 466.182 205.019 467.011 205.019V202.019ZM479.021 205.019C479.85 205.019 480.521 204.347 480.521 203.519C480.521 202.69 479.85 202.019 479.021 202.019L479.021 205.019ZM471.516 197.51V203.519H474.516V197.51H471.516ZM471.516 203.519V209.527H474.516V203.519H471.516ZM467.011 205.019H473.016V202.019H467.011V205.019ZM473.016 205.019L479.021 205.019L479.021 202.019L473.016 202.019L473.016 205.019Z" fill="#313131"/>
<path d="M645.519 193.004C645.519 192.176 644.847 191.504 644.019 191.504C643.19 191.504 642.519 192.176 642.519 193.004H645.519ZM642.519 214.033C642.519 214.861 643.19 215.533 644.019 215.533C644.847 215.533 645.519 214.861 645.519 214.033H642.519ZM633.508 202.019C632.679 202.019 632.008 202.69 632.008 203.519C632.008 204.347 632.679 205.019 633.508 205.019V202.019ZM654.53 205.019C655.358 205.019 656.03 204.347 656.03 203.519C656.03 202.69 655.358 202.019 654.53 202.019L654.53 205.019ZM642.519 193.004V203.519H645.519V193.004H642.519ZM642.519 203.519V214.033H645.519V203.519H642.519ZM633.508 205.019H644.019V202.019H633.508V205.019ZM644.019 205.019L654.53 205.019L654.53 202.019L644.019 202.019L644.019 205.019Z" fill="#313131"/>
<path d="M294.509 291.029L302.016 283.519M309.523 276.008L302.016 283.519M302.016 283.519L309.523 291.029M302.016 283.519L294.509 276.008" stroke="#313131" stroke-width="3" stroke-linecap="round" stroke-linejoin="round"/>
<ellipse cx="388.016" cy="283.519" rx="13.5121" ry="13.5185" stroke="#313131" stroke-width="3" stroke-linecap="round" stroke-linejoin="round"/>
<path d="M383.512 288.025L388.016 283.519M392.52 279.012L388.016 283.519M388.016 283.519L392.52 288.025M388.016 283.519L383.512 279.012" stroke="#313131" stroke-width="3" stroke-linecap="round" stroke-linejoin="round"/>
<ellipse cx="473.016" cy="283.519" rx="13.5121" ry="13.5185" stroke="#313131" stroke-width="3" stroke-linecap="round" stroke-linejoin="round"/>
<path d="M467.011 282.019C466.182 282.019 465.511 282.69 465.511 283.519C465.511 284.347 466.182 285.019 467.011 285.019V282.019ZM479.021 285.019C479.85 285.019 480.521 284.347 480.521 283.519C480.521 282.69 479.85 282.019 479.021 282.019V285.019ZM467.011 285.019H473.016V282.019H467.011V285.019ZM473.016 285.019H479.021V282.019H473.016V285.019Z" fill="#313131"/>
<path d="M557.84 286.874L544.678 284.21L570.78 270.304L563.608 299.007L557.84 286.874Z" stroke="#313131" stroke-width="3" stroke-linecap="round" stroke-linejoin="round"/>
<path d="M35.5067 288.022L46.0186 277.51L56.5305 288.022" stroke="#313131" stroke-width="3.0034" stroke-linecap="round" stroke-linejoin="round"/>
<path d="M638.011 273.004L648.523 283.517L638.011 294.03" stroke="#313131" stroke-width="3.00362" stroke-linecap="round" stroke-linejoin="round"/>
<path d="M141.531 292.527L131.019 282.015L120.507 292.527" stroke="#313131" stroke-width="3" stroke-miterlimit="10" stroke-linecap="round" stroke-linejoin="round"/>
<path d="M141.531 274.506H120.507" stroke="#313131" stroke-width="3" stroke-miterlimit="10" stroke-linecap="round" stroke-linejoin="round"/>
<path d="M217.018 292.526V271.502M217.018 271.502L208.008 280.512M217.018 271.502L226.028 280.512" stroke="#313131" stroke-width="3" stroke-linecap="round" stroke-linejoin="round"/>
<path d="M132.192 367.874L145.354 365.21L119.252 351.304L126.424 380.007L132.192 367.874Z" stroke="#313131" stroke-width="3" stroke-linecap="round" stroke-linejoin="round"/>
<ellipse cx="227.526" cy="376.535" rx="4.50402" ry="4.50617" stroke="#313131" stroke-width="3" stroke-linecap="round" stroke-linejoin="round"/>
<ellipse cx="227.526" cy="352.502" rx="4.50402" ry="4.50617" stroke="#313131" stroke-width="3" stroke-linecap="round" stroke-linejoin="round"/>
<ellipse cx="206.507" cy="364.518" rx="4.50402" ry="4.50617" stroke="#313131" stroke-width="3" stroke-linecap="round" stroke-linejoin="round"/>
<path d="M223.021 375.033L211.011 367.523M211.011 361.514L223.021 354.004" stroke="#313131" stroke-width="3" stroke-linecap="round" stroke-linejoin="round"/>
<path d="M306.523 374.282L296.011 363.77L306.523 353.258" stroke="#313131" stroke-width="3.0034" stroke-linecap="round" stroke-linejoin="round"/>
<path d="M569.525 358.513L559.013 369.025L548.502 358.513" stroke="#313131" stroke-width="3.0034" stroke-linecap="round" stroke-linejoin="round"/>
<path d="M397.029 364.521L376.005 364.521M376.005 364.521L385.015 373.531M376.005 364.521L385.015 355.51" stroke="#313131" stroke-width="3" stroke-linecap="round" stroke-linejoin="round"/>
<path d="M637.648 358.146L652.513 373.015M652.513 373.015L639.772 373.015M652.513 373.015L652.513 360.27" stroke="#313131" stroke-width="3" stroke-linecap="round" stroke-linejoin="round"/>
<path d="M37.0036 375.028L47.5155 364.516L37.0036 354.004" stroke="#313131" stroke-width="3" stroke-miterlimit="10" stroke-linecap="round" stroke-linejoin="round"/>
<path d="M55.024 375.028L55.024 354.004" stroke="#313131" stroke-width="3" stroke-miterlimit="10" stroke-linecap="round" stroke-linejoin="round"/>
<path d="M482.028 375.028L471.517 364.516L482.028 354.004" stroke="#313131" stroke-width="3" stroke-miterlimit="10" stroke-linecap="round" stroke-linejoin="round"/>
<path d="M464.008 375.028L464.008 354.004" stroke="#313131" stroke-width="3" stroke-miterlimit="10" stroke-linecap="round" stroke-linejoin="round"/>
<path d="M458.003 436.506L466.39 444.896C467.563 446.069 469.465 446.069 470.638 444.896L472.396 443.137C473.569 441.964 475.472 441.964 476.645 443.137L487.284 453.78M487.284 453.78H479.776M487.284 453.78V447.021" stroke="#313131" stroke-width="3" stroke-linecap="round" stroke-linejoin="round"/>
<path d="M551.996 446.994V428.994M551.996 428.994L557.994 434.994M551.996 428.994L545.998 434.994" stroke="#313131" stroke-width="3" stroke-linecap="round" stroke-linejoin="round"/>
<path d="M562.493 443.994L562.493 461.994M562.493 461.994L568.491 455.994M562.493 461.994L556.495 455.994" stroke="#313131" stroke-width="3" stroke-linecap="round" stroke-linejoin="round"/>
<path d="M636.509 439.51C636.509 438.682 635.838 438.01 635.009 438.01C634.181 438.01 633.509 438.682 633.509 439.51H636.509ZM654.528 439.51C654.528 438.682 653.857 438.01 653.028 438.01C652.2 438.01 651.528 438.682 651.528 439.51H654.528ZM632.006 436.508C631.178 436.508 630.506 437.18 630.506 438.008C630.506 438.837 631.178 439.508 632.006 439.508V436.508ZM656.031 439.508C656.86 439.508 657.531 438.837 657.531 438.008C657.531 437.18 656.86 436.508 656.031 436.508V439.508ZM633.509 439.51V456.033H636.509V439.51H633.509ZM638.013 460.537H650.025V457.537H638.013V460.537ZM654.528 456.038V439.51H651.528V456.038H654.528ZM650.025 460.537C652.51 460.537 654.528 458.528 654.528 456.038H651.528C651.528 456.866 650.858 457.537 650.025 457.537V460.537ZM633.509 456.033C633.509 458.52 635.525 460.537 638.013 460.537V457.537C637.183 457.537 636.509 456.864 636.509 456.033H633.509ZM632.006 439.508H638.013V436.508H632.006V439.508ZM638.013 439.508H650.025V436.508H638.013V439.508ZM650.025 439.508H656.031V436.508H650.025V439.508ZM639.513 438.008V435.004H636.513V438.008H639.513ZM641.016 433.5H647.022V430.5H641.016V433.5ZM648.525 435.004V438.008H651.525V435.004H648.525ZM647.022 433.5C647.852 433.5 648.525 434.173 648.525 435.004H651.525C651.525 432.517 649.509 430.5 647.022 430.5V433.5ZM639.513 435.004C639.513 434.173 640.186 433.5 641.016 433.5V430.5C638.528 430.5 636.513 432.517 636.513 435.004H639.513Z" fill="#313131"/>
<path d="M641.016 444.016V453.029" stroke="#313131" stroke-width="3" stroke-linecap="round" stroke-linejoin="round"/>
<path d="M647.022 444.016V453.029" stroke="#313131" stroke-width="3" stroke-linecap="round" stroke-linejoin="round"/>
<path d="M46.0211 453.025L34.0066 459.033L46.0211 432L58.0356 459.033L46.0211 453.025Z" stroke="#313131" stroke-width="3" stroke-linecap="round" stroke-linejoin="round"/>
<path d="M393.424 436.506H374.505V454.531H393.424L401.533 446.806L393.424 436.506Z" stroke="#313131" stroke-width="3" stroke-linecap="round" stroke-linejoin="round"/>
<path d="M388.017 442.514C388.017 441.686 387.346 441.014 386.517 441.014C385.689 441.014 385.017 441.686 385.017 442.514H388.017ZM385.017 448.523C385.017 449.351 385.689 450.023 386.517 450.023C387.346 450.023 388.017 449.351 388.017 448.523H385.017ZM383.514 444.019C382.686 444.019 382.014 444.69 382.014 445.519C382.014 446.347 382.686 447.019 383.514 447.019V444.019ZM389.52 447.019C390.349 447.019 391.02 446.347 391.02 445.519C391.02 444.69 390.349 444.019 389.52 444.019L389.52 447.019ZM385.017 442.514V445.519H388.017V442.514H385.017ZM385.017 445.519V448.523H388.017V445.519H385.017ZM383.514 447.019H386.517V444.019H383.514V447.019ZM386.517 447.019L389.52 447.019L389.52 444.019L386.517 444.019L386.517 447.019Z" fill="#313131"/>
<path d="M123.513 436.506C123.513 437.335 124.184 438.006 125.013 438.006C125.841 438.006 126.513 437.335 126.513 436.506H123.513ZM126.513 432C126.513 431.172 125.841 430.5 125.013 430.5C124.184 430.5 123.513 431.172 123.513 432H126.513ZM135.525 436.506C135.525 437.335 136.197 438.006 137.025 438.006C137.854 438.006 138.525 437.335 138.525 436.506H135.525ZM138.525 432C138.525 431.172 137.854 430.5 137.025 430.5C136.197 430.5 135.525 431.172 135.525 432H138.525ZM122.01 460.537H140.028V457.537H122.01V460.537ZM140.028 433.504H122.01V436.504H140.028V433.504ZM117.506 438.008V441.012H120.506V438.008H117.506ZM117.506 441.012V456.033H120.506V441.012H117.506ZM144.531 456.033V441.012H141.531V456.033H144.531ZM144.531 441.012V438.008H141.531V441.012H144.531ZM126.513 436.506V432H123.513V436.506H126.513ZM138.525 436.506V432H135.525V436.506H138.525ZM119.006 442.512H131.019V439.512H119.006V442.512ZM131.019 442.512H143.031V439.512H131.019V442.512ZM122.01 433.504C119.523 433.504 117.506 435.52 117.506 438.008H120.506C120.506 437.177 121.18 436.504 122.01 436.504V433.504ZM140.028 436.504C140.858 436.504 141.531 437.177 141.531 438.008H144.531C144.531 435.52 142.515 433.504 140.028 433.504V436.504ZM140.028 460.537C142.515 460.537 144.531 458.521 144.531 456.033H141.531C141.531 456.864 140.858 457.537 140.028 457.537V460.537ZM122.01 457.537C121.18 457.537 120.506 456.864 120.506 456.033H117.506C117.506 458.521 119.523 460.537 122.01 460.537V457.537Z" fill="#313131"/>
<path d="M132.519 447.021C132.519 446.192 131.847 445.521 131.019 445.521C130.19 445.521 129.519 446.192 129.519 447.021H132.519ZM129.519 453.029C129.519 453.857 130.19 454.529 131.019 454.529C131.847 454.529 132.519 453.857 132.519 453.029H129.519ZM128.016 448.525C127.187 448.525 126.516 449.196 126.516 450.025C126.516 450.853 127.187 451.525 128.016 451.525V448.525ZM134.022 451.525C134.85 451.525 135.522 450.853 135.522 450.025C135.522 449.196 134.85 448.525 134.022 448.525L134.022 451.525ZM129.519 447.021V450.025H132.519V447.021H129.519ZM129.519 450.025V453.029H132.519V450.025H129.519ZM128.016 451.525H131.019V448.525H128.016V451.525ZM131.019 451.525L134.022 451.525L134.022 448.525L131.019 448.525L131.019 451.525Z" fill="#313131"/>
<path d="M211.012 454.531H227.546C229.253 454.531 230.533 453.234 230.533 451.527V435.004C230.533 433.297 229.237 432 227.53 432H206.508C204.801 432 203.505 433.297 203.505 435.004V454.531V459.037L211.012 454.531Z" stroke="#313131" stroke-width="3" stroke-miterlimit="10" stroke-linecap="round" stroke-linejoin="round"/>
<path d="M291.506 433.502C291.506 432.674 290.835 432.002 290.006 432.002C289.178 432.002 288.506 432.674 288.506 433.502H291.506ZM288.506 442.514C288.506 443.343 289.178 444.014 290.006 444.014C290.835 444.014 291.506 443.343 291.506 442.514H288.506ZM285.502 436.508C284.673 436.508 284.002 437.18 284.002 438.008C284.002 438.837 284.673 439.508 285.502 439.508V436.508ZM294.511 439.508C295.339 439.508 296.011 438.837 296.011 438.008C296.011 437.18 295.339 436.508 294.511 436.508L294.511 439.508ZM288.506 433.502V438.008H291.506V433.502H288.506ZM288.506 438.008V442.514H291.506V438.008H288.506ZM285.502 439.508H290.006V436.508H285.502V439.508ZM290.006 439.508L294.511 439.508L294.511 436.508L290.006 436.508L290.006 439.508Z" fill="#313131"/>
<path d="M318.536 459.037H294.511C294.511 459.037 297.942 450.025 306.524 450.025C315.105 450.025 318.536 459.037 318.536 459.037Z" stroke="#313131" stroke-width="3" stroke-linecap="round" stroke-linejoin="round"/>
<ellipse cx="306.523" cy="438.008" rx="6.00627" ry="6.00823" stroke="#313131" stroke-width="3" stroke-linecap="round" stroke-linejoin="round"/>
<path d="M560.517 34.7593V41.5185L563.22 44.2222" stroke="#313131" stroke-width="3" stroke-linecap="round" stroke-linejoin="round"/>
<path d="M559.344 54.9792C562.187 55.2279 565.036 54.5702 567.483 53.1002C569.929 51.6302 571.847 49.4234 572.963 46.7961C574.078 44.1689 574.333 41.256 573.691 38.475C573.049 35.694 571.543 33.1877 569.389 31.3152C567.235 29.4427 564.543 28.3002 561.7 28.0514C558.856 27.8027 556.007 28.4604 553.561 29.9304C551.114 31.4004 549.196 33.6072 548.081 36.2344C546.966 38.8617 546.711 41.7746 547.353 44.5556" stroke="#313131" stroke-width="3.0034" stroke-linecap="round" stroke-linejoin="round"/>
<path d="M542.501 41.5153L547.006 46.0204L551.512 41.5153" stroke="#313131" stroke-width="3.0034" stroke-linecap="round" stroke-linejoin="round"/>
<path d="M636.513 32.5062C636.513 33.3346 637.184 34.0062 638.013 34.0062C638.841 34.0062 639.513 33.3346 639.513 32.5062H636.513ZM639.513 28C639.513 27.1716 638.841 26.5 638.013 26.5C637.184 26.5 636.513 27.1716 636.513 28H639.513ZM648.525 32.5062C648.525 33.3346 649.197 34.0062 650.025 34.0062C650.854 34.0062 651.525 33.3346 651.525 32.5062H648.525ZM651.525 28C651.525 27.1716 650.854 26.5 650.025 26.5C649.197 26.5 648.525 27.1716 648.525 28H651.525ZM635.01 56.537H653.028V53.537H635.01V56.537ZM653.028 29.5041H635.01V32.5041H653.028V29.5041ZM630.506 34.0077V37.0123H633.506V34.0077H630.506ZM630.506 37.0123V52.0334H633.506V37.0123H630.506ZM657.531 52.0334V37.0123H654.531V52.0334H657.531ZM657.531 37.0123V34.0077H654.531V37.0123H657.531ZM639.513 32.5062V28H636.513V32.5062H639.513ZM651.525 32.5062V28H648.525V32.5062H651.525ZM632.006 38.5123H644.019V35.5123H632.006V38.5123ZM644.019 38.5123H656.031V35.5123H644.019V38.5123ZM635.01 29.5041C632.523 29.5041 630.506 31.5205 630.506 34.0077H633.506C633.506 33.1773 634.18 32.5041 635.01 32.5041V29.5041ZM653.028 32.5041C653.858 32.5041 654.531 33.1773 654.531 34.0077H657.531C657.531 31.5205 655.515 29.5041 653.028 29.5041V32.5041ZM653.028 56.537C655.515 56.537 657.531 54.5207 657.531 52.0334H654.531C654.531 52.8638 653.858 53.537 653.028 53.537V56.537ZM635.01 53.537C634.18 53.537 633.506 52.8638 633.506 52.0334H630.506C630.506 54.5207 632.523 56.537 635.01 56.537V53.537Z" fill="#313131"/>
<path d="M641.016 49.0288L647.022 43.0206" stroke="#313131" stroke-width="3" stroke-linecap="round" stroke-linejoin="round"/>
<path d="M647.022 49.0288L641.016 43.0206" stroke="#313131" stroke-width="3" stroke-linecap="round" stroke-linejoin="round"/>
<path d="M46.0161 46.0247C54.5965 46.0247 58.0268 55.037 58.0268 55.037H46.0161H34.0054C34.0054 55.037 37.4357 46.0247 46.0161 46.0247Z" stroke="#313131" stroke-width="3" stroke-linecap="round" stroke-linejoin="round"/>
<ellipse cx="46.0161" cy="34.0082" rx="6.00536" ry="6.00823" stroke="#313131" stroke-width="3" stroke-linecap="round" stroke-linejoin="round"/>
<path d="M131.016 28L134.387 38.379H145.295L136.47 44.7935L139.841 55.1725L131.016 48.7579L122.191 55.1725L125.562 44.7935L116.737 38.379H127.645L131.016 28Z" stroke="#313131" stroke-width="3" stroke-linecap="round" stroke-linejoin="round"/>
<path d="M230.528 44.5226V46.0226C231.357 46.0226 232.028 45.3511 232.028 44.5226H230.528ZM203.504 44.5226H202.004C202.004 45.3511 202.676 46.0226 203.504 46.0226V44.5226ZM220.019 41.5185H221.519C221.519 40.6901 220.847 40.0185 220.019 40.0185V41.5185ZM214.013 41.5185V40.0185C213.185 40.0185 212.513 40.6901 212.513 41.5185H214.013ZM220.019 47.5268V49.0268C220.847 49.0268 221.519 48.3552 221.519 47.5268H220.019ZM214.013 47.5268H212.513C212.513 48.3552 213.185 49.0268 214.013 49.0268V47.5268ZM211.012 34.0082C211.012 34.8367 211.684 35.5082 212.512 35.5082C213.34 35.5082 214.012 34.8367 214.012 34.0082H211.012ZM220.02 34.0082C220.02 34.8367 220.692 35.5082 221.52 35.5082C222.349 35.5082 223.02 34.8367 223.02 34.0082H220.02ZM209.509 55.035H224.523V52.035H209.509V55.035ZM229.025 50.5309V44.5226H226.025V50.5309H229.025ZM205.007 44.5226V50.5309H208.007V44.5226H205.007ZM232.028 44.5226V37.0123H229.028V44.5226H232.028ZM227.525 32.5082H206.507V35.5082H227.525V32.5082ZM202.004 37.0123V44.5226H205.004V37.0123H202.004ZM203.504 46.0226H206.507V43.0226H203.504V46.0226ZM227.525 46.0226H230.528V43.0226H227.525V46.0226ZM227.525 43.0226H220.019V46.0226H227.525V43.0226ZM221.519 44.5226V41.5185H218.519V44.5226H221.519ZM220.019 40.0185H214.013V43.0185H220.019V40.0185ZM221.519 47.5268V44.5226H218.519V47.5268H221.519ZM212.513 41.5185V44.5226H215.513V41.5185H212.513ZM212.513 44.5226V47.5268H215.513V44.5226H212.513ZM206.507 46.0226H214.013V43.0226H206.507V46.0226ZM206.507 32.5082C204.019 32.5082 202.004 34.5255 202.004 37.0123H205.004C205.004 36.181 205.677 35.5082 206.507 35.5082V32.5082ZM232.028 37.0123C232.028 34.5255 230.013 32.5082 227.525 32.5082V35.5082C228.355 35.5082 229.028 36.181 229.028 37.0123H232.028ZM224.523 55.035C227.01 55.035 229.025 53.0177 229.025 50.5309H226.025C226.025 51.3622 225.352 52.035 224.523 52.035V55.035ZM209.509 52.035C208.68 52.035 208.007 51.3622 208.007 50.5309H205.007C205.007 53.0177 207.022 55.035 209.509 55.035V52.035ZM214.012 34.0082V31.0041H211.012V34.0082H214.012ZM214.013 31.0021H220.019V28.0021H214.013V31.0021ZM220.02 31.0041V34.0082H223.02V31.0041H220.02ZM220.019 31.0021C220.021 31.0021 220.021 31.0022 220.02 31.0021C220.02 31.002 220.019 31.0018 220.019 31.0015C220.018 31.0011 220.018 31.0012 220.019 31.0024C220.021 31.0037 220.021 31.0043 220.021 31.0035C220.02 31.003 220.02 31.0025 220.02 31.002C220.02 31.0014 220.02 31.002 220.02 31.0041H223.02C223.02 29.3468 221.677 28.0021 220.019 28.0021V31.0021ZM214.012 31.0041C214.012 31.002 214.012 31.0014 214.012 31.002C214.012 31.0025 214.012 31.003 214.012 31.0035C214.011 31.0043 214.011 31.0037 214.013 31.0024C214.014 31.0012 214.015 31.0011 214.014 31.0015C214.013 31.0018 214.012 31.002 214.012 31.0021C214.011 31.0022 214.011 31.0021 214.013 31.0021V28.0021C212.355 28.0021 211.012 29.3468 211.012 31.0041H214.012ZM214.013 49.0268H220.019V46.0268H214.013V49.0268Z" fill="#313131"/>
<path d="M287.003 37.0124H285.503C285.503 37.8408 286.174 38.5124 287.003 38.5124V37.0124ZM287.003 31.0041V29.5041C286.174 29.5041 285.503 30.1757 285.503 31.0041H287.003ZM287.003 52.0329H285.503C285.503 52.8614 286.174 53.5329 287.003 53.5329V52.0329ZM287.003 46.0247V44.5247C286.174 44.5247 285.503 45.1963 285.503 46.0247H287.003ZM317.029 37.0124V38.5124C317.858 38.5124 318.529 37.8408 318.529 37.0124H317.029ZM317.029 31.0041H318.529C318.529 30.1757 317.858 29.5041 317.029 29.5041V31.0041ZM317.029 52.0329V53.5329C317.858 53.5329 318.529 52.8614 318.529 52.0329H317.029ZM317.029 46.0247H318.529C318.529 45.1963 317.858 44.5247 317.029 44.5247V46.0247ZM293.007 41.5185C293.007 40.1297 292.655 38.9883 292.051 38.0816C291.453 37.1843 290.667 36.6048 289.926 36.2341C289.191 35.8664 288.474 35.69 287.953 35.6032C287.689 35.5592 287.466 35.5366 287.303 35.525C287.221 35.5191 287.154 35.516 287.103 35.5143C287.078 35.5134 287.057 35.513 287.04 35.5127C287.031 35.5125 287.024 35.5125 287.018 35.5124C287.015 35.5124 287.012 35.5124 287.009 35.5124C287.008 35.5124 287.007 35.5124 287.006 35.5124C287.005 35.5124 287.004 35.5124 287.004 35.5124C287.003 35.5124 287.003 35.5124 287.003 37.0124C287.003 38.5124 287.002 38.5124 287.001 38.5123C287.001 38.5123 287 38.5123 287 38.5123C286.999 38.5123 286.998 38.5123 286.998 38.5123C286.996 38.5123 286.995 38.5123 286.994 38.5123C286.992 38.5123 286.991 38.5123 286.991 38.5123C286.992 38.5123 286.996 38.5124 287.003 38.5126C287.019 38.5131 287.048 38.5144 287.089 38.5173C287.173 38.5233 287.301 38.5359 287.46 38.5623C287.784 38.6164 288.193 38.7216 288.584 38.9171C288.969 39.1097 289.308 39.3751 289.555 39.7452C289.795 40.1059 290.007 40.6543 290.007 41.5185H293.007ZM288.503 37.0124V31.0041H285.503V37.0124H288.503ZM288.503 52.0329V46.0247H285.503V52.0329H288.503ZM287.003 46.0247C287.003 47.5247 287.003 47.5247 287.004 47.5247C287.004 47.5247 287.005 47.5247 287.006 47.5247C287.007 47.5247 287.008 47.5247 287.009 47.5247C287.012 47.5247 287.015 47.5247 287.018 47.5246C287.024 47.5246 287.031 47.5245 287.04 47.5244C287.057 47.5241 287.078 47.5236 287.103 47.5228C287.154 47.5211 287.221 47.5179 287.303 47.5121C287.466 47.5004 287.689 47.4779 287.953 47.4339C288.474 47.3471 289.191 47.1707 289.926 46.8029C290.667 46.4323 291.453 45.8527 292.051 44.9554C292.655 44.0488 293.007 42.9074 293.007 41.5185H290.007C290.007 42.3827 289.795 42.9312 289.555 43.2919C289.308 43.662 288.969 43.9273 288.584 44.1199C288.193 44.3155 287.784 44.4207 287.46 44.4747C287.301 44.5011 287.173 44.5138 287.089 44.5197C287.048 44.5227 287.019 44.5239 287.003 44.5244C286.996 44.5247 286.992 44.5248 286.991 44.5248C286.991 44.5248 286.992 44.5247 286.994 44.5247C286.995 44.5247 286.996 44.5247 286.998 44.5247C286.998 44.5247 286.999 44.5247 287 44.5247C287 44.5247 287.001 44.5247 287.001 44.5247C287.002 44.5247 287.003 44.5247 287.003 46.0247ZM314.025 41.5185C314.025 40.6543 314.237 40.1059 314.477 39.7452C314.724 39.3751 315.064 39.1097 315.449 38.9171C315.839 38.7216 316.248 38.6164 316.572 38.5623C316.731 38.5359 316.86 38.5233 316.943 38.5173C316.984 38.5144 317.014 38.5131 317.029 38.5126C317.037 38.5124 317.041 38.5123 317.041 38.5123C317.041 38.5123 317.04 38.5123 317.038 38.5123C317.037 38.5123 317.036 38.5123 317.035 38.5123C317.034 38.5123 317.033 38.5123 317.032 38.5123C317.032 38.5123 317.031 38.5123 317.031 38.5123C317.03 38.5124 317.029 38.5124 317.029 37.0124C317.029 35.5124 317.029 35.5124 317.028 35.5124C317.028 35.5124 317.027 35.5124 317.026 35.5124C317.025 35.5124 317.024 35.5124 317.023 35.5124C317.02 35.5124 317.017 35.5124 317.014 35.5124C317.008 35.5125 317.001 35.5125 316.992 35.5127C316.976 35.513 316.954 35.5134 316.929 35.5143C316.878 35.516 316.811 35.5191 316.729 35.525C316.566 35.5366 316.343 35.5592 316.079 35.6032C315.558 35.69 314.842 35.8664 314.106 36.2341C313.365 36.6048 312.579 37.1843 311.981 38.0816C311.377 38.9883 311.025 40.1297 311.025 41.5185H314.025ZM318.529 37.0124V31.0041H315.529V37.0124H318.529ZM318.529 52.0329V46.0247H315.529V52.0329H318.529ZM317.029 46.0247C317.029 44.5247 317.03 44.5247 317.031 44.5247C317.031 44.5247 317.032 44.5247 317.032 44.5247C317.033 44.5247 317.034 44.5247 317.035 44.5247C317.036 44.5247 317.037 44.5247 317.038 44.5247C317.04 44.5247 317.041 44.5248 317.041 44.5248C317.041 44.5248 317.037 44.5247 317.029 44.5244C317.014 44.5239 316.984 44.5227 316.943 44.5197C316.86 44.5138 316.731 44.5011 316.572 44.4747C316.248 44.4207 315.839 44.3155 315.449 44.1199C315.064 43.9273 314.724 43.662 314.477 43.2919C314.237 42.9312 314.025 42.3827 314.025 41.5185H311.025C311.025 42.9074 311.377 44.0488 311.981 44.9554C312.579 45.8527 313.365 46.4323 314.106 46.8029C314.842 47.1707 315.558 47.3471 316.079 47.4339C316.343 47.4779 316.566 47.5004 316.729 47.5121C316.811 47.5179 316.878 47.5211 316.929 47.5228C316.954 47.5236 316.976 47.5241 316.992 47.5244C317.001 47.5245 317.008 47.5246 317.014 47.5246C317.017 47.5247 317.02 47.5247 317.023 47.5247C317.024 47.5247 317.025 47.5247 317.026 47.5247C317.027 47.5247 317.028 47.5247 317.028 47.5247C317.029 47.5247 317.029 47.5247 317.029 46.0247ZM287.003 32.5041H317.029V29.5041H287.003V32.5041ZM317.029 50.5329H287.003V53.5329H317.029V50.5329Z" fill="#313131"/>
<path d="M302.016 37.0123L302.863 40.3519L306.3 40.126L303.387 41.9641L304.664 45.1641L302.016 42.9605L299.369 45.1641L300.645 41.9641L297.733 40.126L301.169 40.3519L302.016 37.0123Z" stroke="#313131" stroke-width="3" stroke-linecap="round" stroke-linejoin="round"/>
<path d="M376.005 35.5103H400.027L401.528 55.037H374.504L376.005 35.5103Z" stroke="#313131" stroke-width="3" stroke-linecap="round" stroke-linejoin="round"/>
<path d="M394.021 35.5103C394.021 32.192 392.52 28 388.016 28C383.512 28 382.011 32.192 382.011 35.5103" stroke="#313131" stroke-width="3" stroke-linecap="round" stroke-linejoin="round"/>
<path d="M394.021 40.0165C394.021 41.5097 392.52 44.5226 388.016 44.5226C383.512 44.5226 382.011 41.5097 382.011 40.0165" stroke="#313131" stroke-width="3" stroke-linecap="round" stroke-linejoin="round"/>
<path d="M467.011 28L459.504 32.5062V53.535L467.011 49.0288M467.011 28L479.021 34.0082M467.011 28V49.0288M479.021 34.0082L486.528 29.5021V50.5309L479.021 55.037M479.021 34.0082V55.037M479.021 55.037L467.011 49.0288" stroke="#313131" stroke-width="3" stroke-linecap="round" stroke-linejoin="round"/>
</svg>
