<svg width="459" height="124" viewBox="0 0 459 124" fill="none" xmlns="http://www.w3.org/2000/svg">
<g clip-path="url(#clip0)">
<path fill-rule="evenodd" clip-rule="evenodd" d="M141.487 27.78V35.2472H140.562C138.273 30.6236 132.945 26 123.918 26C109.254 26 96 37.7947 96 60.12C96 80.6839 108.065 94.794 127.484 94.794C146.859 94.794 159 80.3939 159 59.83V27.78C159 26.6754 158.105 25.78 157 25.78H143.487C142.383 25.78 141.487 26.6754 141.487 27.78ZM113 60.2997C113 48.3665 118.064 40 128.192 40C138.364 40 142.635 48.8949 142.635 60.2997C142.635 72.0568 138.188 79.7188 128.192 79.7188C118.636 79.7188 113 72.8494 113 60.2997Z" fill="white"/>
<path d="M96.9868 111.487C96.3151 112.364 96.4794 113.622 97.381 114.261C106.127 120.451 116.558 123.854 127.303 123.995C138.048 124.137 148.566 121.009 157.471 115.051C158.389 114.436 158.587 113.182 157.938 112.288L151.575 103.512C150.926 102.618 149.678 102.424 148.751 103.024C142.441 107.114 135.047 109.256 127.498 109.157C119.949 109.057 112.615 106.722 106.414 102.468C105.503 101.843 104.25 102.005 103.579 102.881L96.9868 111.487Z" fill="white"/>
<path d="M52.1804 43.0142C52.1804 41.9096 51.285 41.0142 50.1804 41.0142H19.3935C18.2889 41.0142 17.3935 40.1188 17.3935 39.0142V17.8523C17.3935 16.7477 18.2889 15.8523 19.3935 15.8523H56.2571C57.3617 15.8523 58.2571 14.9568 58.2571 13.8523V3.23296C58.2571 2.12839 57.3617 1.23296 56.2571 1.23296H2C0.895432 1.23296 0 2.12839 0 3.23296V91.4148C0 92.5194 0.895431 93.4148 2 93.4148H15.3935C16.498 93.4148 17.3935 92.5193 17.3935 91.4148V57.5895C17.3935 56.4849 18.2889 55.5895 19.3935 55.5895H50.1804C51.285 55.5895 52.1804 54.6941 52.1804 53.5895V43.0142Z" fill="white"/>
<path d="M77.4265 18.142C82.9748 18.142 87.114 14.0469 87.114 9.07103C87.114 4.22728 82.9748 0 77.4265 0C71.8782 0 67.6509 4.22728 67.6509 9.07103C67.6509 14.0469 71.8782 18.142 77.4265 18.142ZM85.9691 27.7784C85.9691 26.6738 85.0737 25.7784 83.9691 25.7784H70.8398C69.7353 25.7784 68.8398 26.6738 68.8398 27.7784V91.4148C68.8398 92.5194 69.7353 93.4148 70.8398 93.4148H83.9691C85.0737 93.4148 85.9691 92.5193 85.9691 91.4148V27.7784Z" fill="white"/>
<path d="M178.899 18.142C184.447 18.142 188.587 14.0469 188.587 9.07103C188.587 4.22728 184.447 0 178.899 0C173.351 0 169.124 4.22728 169.124 9.07103C169.124 14.0469 173.351 18.142 178.899 18.142ZM187.442 27.7784C187.442 26.6738 186.546 25.7784 185.442 25.7784H172.312C171.208 25.7784 170.312 26.6738 170.312 27.7784V91.4148C170.312 92.5194 171.208 93.4148 172.312 93.4148H185.442C186.546 93.4148 187.442 92.5193 187.442 91.4148V27.7784Z" fill="white"/>
<path d="M255.821 47.6603C256.939 47.4935 257.704 46.4285 257.424 45.3327C254.23 32.841 243.49 24.8977 228.936 24.8977C209.517 24.8977 197.496 39.2088 197.496 59.5966C197.496 80.1605 209.429 94.6918 228.98 94.6918C243.343 94.6918 253.809 86.8199 257.216 75.0578C257.538 73.9465 256.764 72.8442 255.618 72.6806L243.438 70.9406C242.446 70.7989 241.516 71.4184 241.154 72.3524C239.169 77.4738 235.123 80.6889 228.98 80.6889C218.809 80.6889 213.877 72.2784 213.877 59.5966C213.877 47.0469 218.853 38.7685 228.98 38.7685C235.765 38.7685 239.583 42.5298 241.419 47.9876C241.748 48.9646 242.705 49.6168 243.725 49.4647L255.821 47.6603Z" fill="white"/>
<path d="M296.73 94.6918C316.105 94.6918 328.215 80.2926 328.215 59.7287C328.215 39.0327 316.105 24.8977 296.73 24.8977C277.311 24.8977 265.246 39.0327 265.246 59.7287C265.246 80.2926 277.311 94.6918 296.73 94.6918ZM296.73 80.6889C286.03 80.6889 281.627 71.706 281.627 59.7287C281.627 47.7074 286.03 38.7685 296.73 38.7685C307.387 38.7685 311.834 47.7074 311.834 59.7287C311.834 71.706 307.387 80.6889 296.73 80.6889Z" fill="white"/>
<path d="M354.848 56.206C354.848 45.6818 359.604 38.9886 367.266 38.9886C373.739 38.9886 378.582 43.5682 378.582 51.6264V91.4148C378.582 92.5193 379.478 93.4148 380.582 93.4148H393.668C394.772 93.4148 395.668 92.5193 395.668 91.4148V50.9219C395.668 32.1193 385.055 24.8977 373.21 24.8977C364.668 24.8977 358.107 28.8168 354.452 34.3651H353.747V27.7784C353.747 26.6738 352.852 25.7784 351.747 25.7784H339.719C338.614 25.7784 337.719 26.6738 337.719 27.7784V91.4148C337.719 92.5194 338.614 93.4148 339.719 93.4148H352.848C353.953 93.4148 354.848 92.5193 354.848 91.4148V56.206Z" fill="white"/>
<path d="M406.151 44.669C406.151 52.1989 411.039 60.081 423.457 63.9119L429.93 65.7614C437.327 68.0511 442.215 70.2088 442.215 74.0398C442.215 78.0909 437.812 80.733 431.603 80.5128C424.962 80.2021 421.712 76.7063 419.92 72.8041C419.509 71.9094 418.561 71.36 417.595 71.5479L405.635 73.8725C404.539 74.0855 403.822 75.1586 404.137 76.2297C407.346 87.1175 417.567 94.6918 432.616 94.6918C448.864 94.6918 458.948 85.7969 458.948 74.5242C458.948 65.9375 453.092 57.6151 439.925 53.652L434.113 52.0227C427.64 50.2173 423.589 48.7202 423.589 44.8892C423.589 40.8821 428.344 38.196 433.849 38.5483C439.244 38.8481 441.962 41.9218 443.33 45.1105C443.73 46.0425 444.686 46.6517 445.685 46.4779L457.117 44.4897C458.22 44.298 458.959 43.235 458.653 42.1586C455.718 31.8375 446.009 24.8977 432.792 24.8977C418.613 24.8977 406.151 32.7358 406.151 44.669Z" fill="white"/>
</g>
<defs>
<clipPath id="clip0">
<rect width="459" height="124" fill="white"/>
</clipPath>
</defs>
</svg>
